link: https://app.diagrams.net/?tags=%7B%7D&lightbox=1&highlight=light-dark(#0000FF,#FF99CC)&edit=_blank&layers=1&nav=1&dark=1#Hanavi31%2FRededoOrgulho%2Fmain%2FRedeOrgulhoDB.drawio

<mxfile host="app.diagrams.net" agent="Mozilla/5.0 (Windows NT 10.0; Win64; x64) AppleWebKit/537.36 (KHTML, like Gecko) Chrome/136.0.0.0 Safari/537.36" version="27.1.3">
  <diagram name="Rede do Orgulho ER" id="5bYmtbv5rfHijAA78wf3">
    <mxGraphModel dx="1004" dy="1134" grid="1" gridSize="10" guides="1" tooltips="1" connect="1" arrows="1" fold="1" page="1" pageScale="1" pageWidth="827" pageHeight="1169" math="0" shadow="0">
      <root>
        <mxCell id="0" />
        <mxCell id="1" parent="0" />
        <mxCell id="mIEPQjcR5FSCOLjOrl_Y-1" value="UsuarioÂ " style="shape=swimlane;whiteSpace=wrap;" vertex="1" parent="1">
          <mxGeometry x="10" y="20" width="240" height="260" as="geometry" />
        </mxCell>
        <mxCell id="mIEPQjcR5FSCOLjOrl_Y-25" value="&lt;span style=&quot;font-size: 12px;&quot;&gt;- IDUsuario (PK)&lt;/span&gt;&lt;div style=&quot;text-wrap-mode: nowrap;&quot;&gt;&lt;span style=&quot;font-size: 12px; text-wrap-mode: wrap;&quot;&gt;- Nome&lt;/span&gt;&lt;/div&gt;&lt;div style=&quot;text-wrap-mode: nowrap;&quot;&gt;&lt;span style=&quot;font-size: 12px; text-wrap-mode: wrap;&quot;&gt;- Sobrenome&lt;/span&gt;&lt;div&gt;&lt;span style=&quot;font-size: 12px; text-wrap-mode: wrap;&quot;&gt;- IdentidadeGenero&lt;/span&gt;&lt;/div&gt;&lt;div&gt;&lt;span style=&quot;font-size: 12px; text-wrap-mode: wrap;&quot;&gt;- OrientacaoSexual&lt;/span&gt;&lt;/div&gt;&lt;div&gt;&lt;span style=&quot;font-size: 12px; text-wrap-mode: wrap;&quot;&gt;- Email&lt;/span&gt;&lt;/div&gt;&lt;div&gt;&lt;span style=&quot;font-size: 12px; text-wrap-mode: wrap;&quot;&gt;- Telefone&lt;/span&gt;&lt;/div&gt;&lt;div&gt;&lt;span style=&quot;font-size: 12px; text-wrap-mode: wrap;&quot;&gt;- CPF&lt;/span&gt;&lt;/div&gt;&lt;div&gt;&lt;span style=&quot;font-size: 12px; text-wrap-mode: wrap;&quot;&gt;- Senha&lt;/span&gt;&lt;/div&gt;&lt;div&gt;&lt;span style=&quot;font-size: 12px; text-wrap-mode: wrap;&quot;&gt;- DataCadastro&lt;/span&gt;&lt;/div&gt;&lt;/div&gt;" style="text;strokeColor=none;fillColor=none;html=1;align=center;verticalAlign=middle;whiteSpace=wrap;rounded=0;fontSize=16;" vertex="1" parent="mIEPQjcR5FSCOLjOrl_Y-1">
          <mxGeometry x="15" y="50" width="210" height="205" as="geometry" />
        </mxCell>
        <mxCell id="mIEPQjcR5FSCOLjOrl_Y-2" value="PostForum" style="shape=swimlane;whiteSpace=wrap;" vertex="1" parent="1">
          <mxGeometry x="290" y="20" width="200" height="170" as="geometry" />
        </mxCell>
        <mxCell id="mIEPQjcR5FSCOLjOrl_Y-29" value="&lt;span style=&quot;font-size: 12px;&quot;&gt;- IDPost (PK)&lt;/span&gt;&lt;div&gt;&lt;span style=&quot;font-size: 12px;&quot;&gt;- Titulo&lt;/span&gt;&lt;/div&gt;&lt;div&gt;&lt;span style=&quot;font-size: 12px;&quot;&gt;- Conteudo&lt;/span&gt;&lt;/div&gt;&lt;div&gt;&lt;span style=&quot;font-size: 12px;&quot;&gt;- DataPostagem&lt;/span&gt;&lt;/div&gt;&lt;div&gt;&lt;span style=&quot;font-size: 12px;&quot;&gt;- Imagem&lt;/span&gt;&lt;/div&gt;&lt;div&gt;&lt;span style=&quot;font-size: 12px;&quot;&gt;- IDUsuario (FK)&lt;/span&gt;&lt;/div&gt;" style="text;strokeColor=none;fillColor=none;html=1;align=center;verticalAlign=middle;whiteSpace=wrap;rounded=0;fontSize=16;" vertex="1" parent="mIEPQjcR5FSCOLjOrl_Y-2">
          <mxGeometry x="10" y="50" width="180" height="110" as="geometry" />
        </mxCell>
        <mxCell id="mIEPQjcR5FSCOLjOrl_Y-3" value="RespostaForum" style="shape=swimlane;whiteSpace=wrap;" vertex="1" parent="1">
          <mxGeometry x="290" y="215" width="200" height="140" as="geometry" />
        </mxCell>
        <mxCell id="mIEPQjcR5FSCOLjOrl_Y-28" value="&lt;span style=&quot;font-size: 12px;&quot;&gt;- IDResposta (PK)&lt;/span&gt;&lt;div&gt;&lt;span style=&quot;font-size: 12px;&quot;&gt;- Conteudo&lt;/span&gt;&lt;/div&gt;&lt;div&gt;&lt;span style=&quot;font-size: 12px;&quot;&gt;- DataResposta&lt;/span&gt;&lt;/div&gt;&lt;div&gt;&lt;span style=&quot;font-size: 12px;&quot;&gt;- IDPost (FK)&lt;/span&gt;&lt;/div&gt;&lt;div&gt;&lt;span style=&quot;font-size: 12px;&quot;&gt;- IDUsuario (FK)&lt;/span&gt;&lt;/div&gt;" style="text;strokeColor=none;fillColor=none;html=1;align=center;verticalAlign=middle;whiteSpace=wrap;rounded=0;fontSize=16;" vertex="1" parent="mIEPQjcR5FSCOLjOrl_Y-3">
          <mxGeometry x="10" y="45" width="180" height="85" as="geometry" />
        </mxCell>
        <mxCell id="mIEPQjcR5FSCOLjOrl_Y-4" value="LocalApoio" style="shape=swimlane;whiteSpace=wrap;" vertex="1" parent="1">
          <mxGeometry x="10" y="360" width="240" height="230" as="geometry" />
        </mxCell>
        <mxCell id="mIEPQjcR5FSCOLjOrl_Y-26" value="&lt;span style=&quot;font-size: 12px;&quot;&gt;&amp;nbsp;- IDLocal (PK)&lt;/span&gt;&lt;div&gt;&lt;span style=&quot;font-size: 12px;&quot;&gt;- Nome&lt;/span&gt;&lt;/div&gt;&lt;div&gt;&lt;span style=&quot;font-size: 12px;&quot;&gt;- Descricao&lt;/span&gt;&lt;/div&gt;&lt;div&gt;&lt;span style=&quot;font-size: 12px;&quot;&gt;- TipoLocal (FK)&lt;/span&gt;&lt;/div&gt;&lt;div&gt;&lt;span style=&quot;font-size: 12px;&quot;&gt;- Imagem&lt;/span&gt;&lt;/div&gt;&lt;div&gt;&lt;span style=&quot;font-size: 12px;&quot;&gt;- LinkMaps&lt;/span&gt;&lt;/div&gt;&lt;div&gt;&lt;span style=&quot;font-size: 12px;&quot;&gt;- StatusLocal&lt;/span&gt;&lt;/div&gt;&lt;div&gt;&lt;span style=&quot;font-size: 12px;&quot;&gt;- IDUsuario (FK)&lt;/span&gt;&lt;/div&gt;" style="text;strokeColor=none;fillColor=none;html=1;align=center;verticalAlign=middle;whiteSpace=wrap;rounded=0;fontSize=16;" vertex="1" parent="mIEPQjcR5FSCOLjOrl_Y-4">
          <mxGeometry x="10" y="44" width="220" height="180" as="geometry" />
        </mxCell>
        <mxCell id="mIEPQjcR5FSCOLjOrl_Y-6" value="TagsGeral" style="shape=swimlane;whiteSpace=wrap;" vertex="1" parent="1">
          <mxGeometry x="720" y="390" width="140" height="90" as="geometry" />
        </mxCell>
        <mxCell id="mIEPQjcR5FSCOLjOrl_Y-30" value="&lt;span style=&quot;font-size: 12px;&quot;&gt;- IDTag (PK)&lt;/span&gt;&lt;div&gt;&lt;span style=&quot;font-size: 12px;&quot;&gt;- Nome&lt;/span&gt;&lt;/div&gt;" style="text;strokeColor=none;fillColor=none;html=1;align=center;verticalAlign=middle;whiteSpace=wrap;rounded=0;fontSize=16;" vertex="1" parent="mIEPQjcR5FSCOLjOrl_Y-6">
          <mxGeometry y="45" width="140" height="35" as="geometry" />
        </mxCell>
        <mxCell id="mIEPQjcR5FSCOLjOrl_Y-7" value="PostTag" style="shape=swimlane;whiteSpace=wrap;" vertex="1" parent="1">
          <mxGeometry x="520" y="330" width="140" height="100" as="geometry" />
        </mxCell>
        <mxCell id="mIEPQjcR5FSCOLjOrl_Y-31" value="&lt;span style=&quot;font-size: 12px;&quot;&gt;- IDPost (FK)&lt;/span&gt;&lt;div&gt;&lt;span style=&quot;font-size: 12px;&quot;&gt;- IDTag (FK)&lt;/span&gt;&lt;/div&gt;" style="text;strokeColor=none;fillColor=none;html=1;align=center;verticalAlign=middle;whiteSpace=wrap;rounded=0;fontSize=16;" vertex="1" parent="mIEPQjcR5FSCOLjOrl_Y-7">
          <mxGeometry x="10" y="44" width="120" height="46" as="geometry" />
        </mxCell>
        <mxCell id="mIEPQjcR5FSCOLjOrl_Y-8" value="LocalTag" style="shape=swimlane;whiteSpace=wrap;" vertex="1" parent="1">
          <mxGeometry x="520" y="445" width="140" height="105" as="geometry" />
        </mxCell>
        <mxCell id="mIEPQjcR5FSCOLjOrl_Y-33" style="edgeStyle=none;curved=1;rounded=0;orthogonalLoop=1;jettySize=auto;html=1;fontSize=12;startSize=8;endSize=8;" edge="1" parent="mIEPQjcR5FSCOLjOrl_Y-8" source="mIEPQjcR5FSCOLjOrl_Y-32" target="mIEPQjcR5FSCOLjOrl_Y-8">
          <mxGeometry relative="1" as="geometry" />
        </mxCell>
        <mxCell id="mIEPQjcR5FSCOLjOrl_Y-32" value="&lt;span style=&quot;font-size: 12px;&quot;&gt;- IDLocal (FK)&lt;/span&gt;&lt;div&gt;&lt;span style=&quot;font-size: 12px;&quot;&gt;- IDTag (FK)&lt;/span&gt;&lt;/div&gt;" style="text;strokeColor=none;fillColor=none;html=1;align=center;verticalAlign=middle;whiteSpace=wrap;rounded=0;fontSize=16;" vertex="1" parent="mIEPQjcR5FSCOLjOrl_Y-8">
          <mxGeometry x="10" y="45" width="120" height="55" as="geometry" />
        </mxCell>
        <mxCell id="mIEPQjcR5FSCOLjOrl_Y-9" style="edgeStyle=orthogonalEdgeStyle;endArrow=block;" edge="1" parent="1" source="mIEPQjcR5FSCOLjOrl_Y-1" target="mIEPQjcR5FSCOLjOrl_Y-2">
          <mxGeometry relative="1" as="geometry" />
        </mxCell>
        <mxCell id="mIEPQjcR5FSCOLjOrl_Y-10" style="edgeStyle=orthogonalEdgeStyle;endArrow=block;" edge="1" parent="1" source="mIEPQjcR5FSCOLjOrl_Y-1" target="mIEPQjcR5FSCOLjOrl_Y-3">
          <mxGeometry relative="1" as="geometry" />
        </mxCell>
        <mxCell id="mIEPQjcR5FSCOLjOrl_Y-11" style="edgeStyle=orthogonalEdgeStyle;endArrow=block;" edge="1" parent="1" source="mIEPQjcR5FSCOLjOrl_Y-2" target="mIEPQjcR5FSCOLjOrl_Y-3">
          <mxGeometry relative="1" as="geometry" />
        </mxCell>
        <mxCell id="mIEPQjcR5FSCOLjOrl_Y-12" style="edgeStyle=orthogonalEdgeStyle;endArrow=block;" edge="1" parent="1" source="mIEPQjcR5FSCOLjOrl_Y-1" target="mIEPQjcR5FSCOLjOrl_Y-4">
          <mxGeometry relative="1" as="geometry" />
        </mxCell>
        <mxCell id="mIEPQjcR5FSCOLjOrl_Y-14" style="edgeStyle=orthogonalEdgeStyle;endArrow=block;" edge="1" parent="1" source="mIEPQjcR5FSCOLjOrl_Y-2" target="mIEPQjcR5FSCOLjOrl_Y-7">
          <mxGeometry relative="1" as="geometry" />
        </mxCell>
        <mxCell id="mIEPQjcR5FSCOLjOrl_Y-15" style="edgeStyle=orthogonalEdgeStyle;endArrow=block;" edge="1" parent="1" source="mIEPQjcR5FSCOLjOrl_Y-4" target="mIEPQjcR5FSCOLjOrl_Y-8">
          <mxGeometry relative="1" as="geometry" />
        </mxCell>
        <mxCell id="mIEPQjcR5FSCOLjOrl_Y-16" style="edgeStyle=orthogonalEdgeStyle;endArrow=block;" edge="1" parent="1" source="mIEPQjcR5FSCOLjOrl_Y-7" target="mIEPQjcR5FSCOLjOrl_Y-6">
          <mxGeometry relative="1" as="geometry" />
        </mxCell>
        <mxCell id="mIEPQjcR5FSCOLjOrl_Y-17" style="edgeStyle=orthogonalEdgeStyle;endArrow=block;" edge="1" parent="1" source="mIEPQjcR5FSCOLjOrl_Y-8" target="mIEPQjcR5FSCOLjOrl_Y-6">
          <mxGeometry relative="1" as="geometry" />
        </mxCell>
      </root>
    </mxGraphModel>
  </diagram>
</mxfile>
